<?xml version="1.0" encoding="utf-8"?>
<!-- Generator: Adobe Illustrator 19.0.0, SVG Export Plug-In . SVG Version: 6.00 Build 0)  -->
<svg version="1.1" id="_x38__stroke" xmlns="http://www.w3.org/2000/svg" xmlns:xlink="http://www.w3.org/1999/xlink" x="0px"
	 y="0px" viewBox="0 0 612 792" style="enable-background:new 0 0 612 792;" xml:space="preserve">
<style type="text/css">
	.st0{fill:#0A9E6A;}
	.st1{fill-rule:evenodd;clip-rule:evenodd;fill:#0A9E6A;}
</style>
<g id="kliko">
	<g>
		<path class="st0" d="M25.4,369.5l0-142.4c0-2.2,1.8-4,4-4h0c2.2,0,4,1.8,4,4l0,142.4c0,2.2-1.8,4-4,4h0
			C27.2,373.5,25.4,371.7,25.4,369.5z"/>
		<path class="st0" d="M29.4,318.1L29.4,318.1c-1.7-1.4-2-3.9-0.6-5.6L98,225.8c1.4-1.7,3.9-2,5.6-0.6h0c1.7,1.4,2,3.9,0.6,5.6
			L35,317.5C33.6,319.2,31.1,319.5,29.4,318.1z"/>
		<path class="st0" d="M102,371l-54.4-71c-1.3-1.8-1-4.3,0.7-5.6h0c1.8-1.3,4.3-1,5.6,0.7l54.4,71c1.3,1.8,1,4.3-0.7,5.6l0,0
			C105.9,373,103.4,372.7,102,371z"/>
	</g>
	<g>
		<path class="st0" d="M379.8,369.5l0-142.4c0-2.2,1.8-4,4-4l0,0c2.2,0,4,1.8,4,4l0,142.4c0,2.2-1.8,4-4,4l0,0
			C381.6,373.5,379.8,371.7,379.8,369.5z"/>
		<path class="st0" d="M383.8,318.1L383.8,318.1c-1.7-1.4-2-3.9-0.6-5.6l69.2-86.7c1.4-1.7,3.9-2,5.6-0.6v0c1.7,1.4,2,3.9,0.6,5.6
			l-69.2,86.7C388.1,319.2,385.5,319.5,383.8,318.1z"/>
		<path class="st0" d="M456.4,371l-54.4-71c-1.3-1.8-1-4.3,0.7-5.6l0,0c1.8-1.3,4.3-1,5.6,0.7l54.4,71c1.3,1.8,1,4.3-0.7,5.6l0,0
			C460.3,373,457.8,372.7,456.4,371z"/>
	</g>
	<path class="st0" d="M128.2,374.4L128.2,374.4c-2.2,0-4-1.8-4-4V227.1c0-2.2,1.8-4,4-4l0,0c2.2,0,4,1.8,4,4v143.3
		C132.2,372.6,130.4,374.4,128.2,374.4z"/>
	<path class="st0" d="M196.1,373.5L196.1,373.5c-2.2,0-4-1.8-4-4V227.1c0-2.2,1.8-4,4-4l0,0c2.2,0,4,1.8,4,4v142.4
		C200.1,371.7,198.3,373.5,196.1,373.5z"/>
	<path class="st0" d="M172.6,374.4h-44.4c-2.2,0-4-1.8-4-4l0,0c0-2.2,1.8-4,4-4h44.4c2.2,0,4,1.8,4,4l0,0
		C176.6,372.6,174.8,374.4,172.6,374.4z"/>
	<path class="st0" d="M533.5,376.1c-35.1,0-63.7-34.7-63.7-77.4s28.6-77.4,63.7-77.4s63.7,34.7,63.7,77.4S568.6,376.1,533.5,376.1z
		 M533.5,229.2c-30.7,0-55.7,31.1-55.7,69.4s25,69.4,55.7,69.4s55.7-31.1,55.7-69.4S564.2,229.2,533.5,229.2z"/>
</g>
<path id="c" class="st1" d="M333.6,242.6c0,0-39.2-20.6-63.6-4.9s-31.2,34.3-35.1,61c-4.3,35.9,21.6,49.4,30.5,50.6
	c8.9,1.2,22.1,2.4,40.2-15.3c0.4,0.1-9.9-24,5.2-33.3c10.2-6.4,20.9-17.9,23.9-26c0,0,8.7,53.7-20.8,61.3
	c-0.4,0.3,10.2-17.5,10.4-24.9c-0.4-0.2-15.4,42-55.1,48.8c-0.2,0.2,14.8,9.5,35.3,6.2c-0.2,0.2,5.2-22.2,28.1-23.9
	C355,339,360.7,331,360.7,331s-12.3,49-52,42.6c-0.2-0.1,17.5-7,24.9-15.6c0,0-32.9,24.1-69.6,11.4c-36-12.4-68.1-75.8-21.8-127.8
	C273.9,211.8,309.9,223.7,333.6,242.6z"/>
</svg>
